<?xml version="1.0" encoding="UTF-8"?>
<!DOCTYPE svg PUBLIC "-//W3C//DTD SVG 1.1//EN" "http://www.w3.org/Graphics/SVG/1.1/DTD/svg11.dtd">
<svg xmlns="http://www.w3.org/2000/svg" version="1.1" width="926px" height="926px" style="shape-rendering:geometricPrecision; text-rendering:geometricPrecision; image-rendering:optimizeQuality; fill-rule:evenodd; clip-rule:evenodd" xmlns:xlink="http://www.w3.org/1999/xlink">
<g><path style="opacity:1" fill="#fefffe" d="M 461.5,-0.5 C 462.167,-0.5 462.833,-0.5 463.5,-0.5C 479.155,43.1671 498.821,84.8338 522.5,124.5C 590.833,241.5 683.5,334.167 800.5,402.5C 840.166,426.179 881.833,445.845 925.5,461.5C 925.5,462.167 925.5,462.833 925.5,463.5C 881.833,479.155 840.166,498.821 800.5,522.5C 683.5,590.833 590.833,683.5 522.5,800.5C 498.821,840.166 479.155,881.833 463.5,925.5C 462.833,925.5 462.167,925.5 461.5,925.5C 445.845,881.833 426.179,840.166 402.5,800.5C 334.167,683.5 241.5,590.833 124.5,522.5C 84.8338,498.821 43.1671,479.155 -0.5,463.5C -0.5,462.833 -0.5,462.167 -0.5,461.5C 43.1671,445.845 84.8338,426.179 124.5,402.5C 241.167,333.833 333.833,241.167 402.5,124.5C 426.179,84.8338 445.845,43.1671 461.5,-0.5 Z"/></g>
<g><path style="opacity:1" fill="#04a776" d="M 402.5,124.5 C 333.833,241.167 241.167,333.833 124.5,402.5C 146.128,296.434 203.461,216.268 296.5,162C 329.917,144.028 365.251,131.528 402.5,124.5 Z"/></g>
<g><path style="opacity:1" fill="#04a776" d="M 522.5,124.5 C 628.566,146.128 708.732,203.461 763,296.5C 780.972,329.917 793.472,365.251 800.5,402.5C 683.5,334.167 590.833,241.5 522.5,124.5 Z"/></g>
<g><path style="opacity:1" fill="#04a776" d="M 463.5,290.5 C 496.314,372.148 553.648,429.314 635.5,462C 553.644,494.689 496.311,551.856 463.5,633.5C 430.833,552.167 373.833,495.167 292.5,462.5C 374.277,429.723 431.277,372.39 463.5,290.5 Z"/></g>
<g><path style="opacity:1" fill="#04a776" d="M 124.5,522.5 C 241.5,590.833 334.167,683.5 402.5,800.5C 296.434,778.872 216.268,721.539 162,628.5C 144.028,595.083 131.528,559.749 124.5,522.5 Z"/></g>
<g><path style="opacity:1" fill="#04a776" d="M 800.5,522.5 C 778.872,628.566 721.539,708.732 628.5,763C 595.083,780.972 559.749,793.472 522.5,800.5C 590.833,683.5 683.5,590.833 800.5,522.5 Z"/></g>
</svg>
