<?xml version="1.0" encoding="UTF-8"?>
<!DOCTYPE svg PUBLIC "-//W3C//DTD SVG 1.1//EN" "http://www.w3.org/Graphics/SVG/1.1/DTD/svg11.dtd">
<svg xmlns="http://www.w3.org/2000/svg" version="1.1" width="1080px" height="1080px" style="shape-rendering:geometricPrecision; text-rendering:geometricPrecision; image-rendering:optimizeQuality; fill-rule:evenodd; clip-rule:evenodd" xmlns:xlink="http://www.w3.org/1999/xlink">
<g><path style="opacity:0.982" fill="#fdfefe" d="M 536.5,30.5 C 548.124,30.3093 556.624,35.3093 562,45.5C 604.068,156.539 646.235,267.539 688.5,378.5C 803.125,387.092 917.792,395.259 1032.5,403C 1043.55,405.052 1050.39,411.552 1053,422.5C 1054.86,434.287 1051.02,443.787 1041.5,451C 954.719,526.146 868.219,601.646 782,677.5C 782.677,684.892 784.011,692.225 786,699.5C 812.491,808.463 838.824,917.463 865,1026.5C 866.84,1047.99 857.007,1058.49 835.5,1058C 831.951,1057.23 828.618,1055.89 825.5,1054C 729.914,990.624 634.414,927.124 539,863.5C 442.576,926.961 346.409,990.794 250.5,1055C 233.751,1062.19 221.251,1057.69 213,1041.5C 211.607,1036.91 211.274,1032.24 212,1027.5C 239.94,911.243 268.106,795.076 296.5,679C 207.63,600.461 118.463,522.294 29,444.5C 20.7242,430.541 22.5575,418.041 34.5,407C 37.8662,404.816 41.5328,403.483 45.5,403C 159.837,395.047 274.171,387.047 388.5,379C 430.721,269.006 472.555,158.839 514,48.5C 517.894,37.8236 525.394,31.8236 536.5,30.5 Z"/></g>
<g><path style="opacity:1" fill="#0daa7b" d="M 533.5,42.5 C 535.607,41.5318 537.941,41.1984 540.5,41.5C 540.5,311.5 540.5,581.5 540.5,851.5C 539.041,851.433 537.708,851.766 536.5,852.5C 536.5,582.5 536.5,312.5 536.5,42.5C 535.5,42.5 534.5,42.5 533.5,42.5 Z"/></g>
<g><path style="opacity:1" fill="#16ad80" d="M 540.5,41.5 C 541.791,41.2627 542.791,41.596 543.5,42.5C 543.5,312.833 543.5,583.167 543.5,853.5C 541.973,853.573 540.973,852.906 540.5,851.5C 540.5,581.5 540.5,311.5 540.5,41.5 Z"/></g>
<g><path style="opacity:1" fill="#05a777" d="M 533.5,42.5 C 534.5,42.5 535.5,42.5 536.5,42.5C 536.5,312.5 536.5,582.5 536.5,852.5C 439.69,916.408 343.023,980.575 246.5,1045C 236.588,1050.59 228.755,1048.42 223,1038.5C 221.682,1035.59 221.348,1032.59 222,1029.5C 250.649,912.904 278.982,796.238 307,679.5C 307.667,677.5 307.667,675.5 307,673.5C 218.167,596 129.333,518.5 40.5,441C 32.2614,432.038 32.5947,423.372 41.5,415C 43.087,414.138 44.7536,413.471 46.5,413C 163.199,405.239 279.866,397.072 396.5,388.5C 439,276.167 481.5,163.833 524,51.5C 525.744,46.9213 528.91,43.9213 533.5,42.5 Z"/></g>
<g><path style="opacity:1" fill="#20b086" d="M 543.5,42.5 C 545.153,42.6596 546.486,43.3263 547.5,44.5C 547.833,315.001 547.5,585.334 546.5,855.5C 544.973,855.573 543.973,854.906 543.5,853.5C 543.5,583.167 543.5,312.833 543.5,42.5 Z"/></g>
<g><path style="opacity:1" fill="#2ab48c" d="M 547.5,44.5 C 550.323,45.9923 551.99,48.3257 552.5,51.5C 552.5,320.833 552.5,590.167 552.5,859.5C 550.147,858.66 548.147,857.326 546.5,855.5C 547.5,585.334 547.833,315.001 547.5,44.5 Z"/></g>
<g><path style="opacity:1" fill="#35b892" d="M 552.5,51.5 C 554.065,53.5093 555.065,55.8427 555.5,58.5C 555.5,326.167 555.5,593.833 555.5,861.5C 553.973,861.573 552.973,860.906 552.5,859.5C 552.5,590.167 552.5,320.833 552.5,51.5 Z"/></g>
<g><path style="opacity:1" fill="#40bc97" d="M 555.5,58.5 C 557.342,62.6795 559.008,67.0129 560.5,71.5C 560.833,336.001 560.5,600.334 559.5,864.5C 557.77,863.974 556.436,862.974 555.5,861.5C 555.5,593.833 555.5,326.167 555.5,58.5 Z"/></g>
<g><path style="opacity:1" fill="#4bc09d" d="M 560.5,71.5 C 562.541,75.9517 564.208,80.6184 565.5,85.5C 565.833,346.334 565.5,607.001 564.5,867.5C 562.632,866.737 560.965,865.737 559.5,864.5C 560.5,600.334 560.833,336.001 560.5,71.5 Z"/></g>
<g><path style="opacity:1" fill="#53c3a2" d="M 565.5,85.5 C 567.267,87.7916 568.267,90.4582 568.5,93.5C 568.833,352.334 568.5,611.001 567.5,869.5C 566.29,869.068 565.29,868.401 564.5,867.5C 565.5,607.001 565.833,346.334 565.5,85.5 Z"/></g>
<g><path style="opacity:1" fill="#5ac5a6" d="M 568.5,93.5 C 570.346,96.54 571.679,99.8733 572.5,103.5C 572.5,359.833 572.5,616.167 572.5,872.5C 570.566,871.89 568.899,870.89 567.5,869.5C 568.5,611.001 568.833,352.334 568.5,93.5 Z"/></g>
<g><path style="opacity:1" fill="#64c8ab" d="M 572.5,103.5 C 574.402,107.655 576.069,111.989 577.5,116.5C 577.833,369.667 577.5,622.667 576.5,875.5C 574.77,874.974 573.436,873.974 572.5,872.5C 572.5,616.167 572.5,359.833 572.5,103.5 Z"/></g>
<g><path style="opacity:1" fill="#6dccb0" d="M 577.5,116.5 C 579.204,119.939 580.538,123.605 581.5,127.5C 581.5,377.833 581.5,628.167 581.5,878.5C 579.566,877.89 577.899,876.89 576.5,875.5C 577.5,622.667 577.833,369.667 577.5,116.5 Z"/></g>
<g><path style="opacity:1" fill="#73ceb3" d="M 581.5,127.5 C 583.267,129.792 584.267,132.458 584.5,135.5C 584.5,383.833 584.5,632.167 584.5,880.5C 582.973,880.573 581.973,879.906 581.5,878.5C 581.5,628.167 581.5,377.833 581.5,127.5 Z"/></g>
<g><path style="opacity:1" fill="#79d0b6" d="M 584.5,135.5 C 586.02,137.89 587.02,140.557 587.5,143.5C 587.5,389.833 587.5,636.167 587.5,882.5C 585.973,882.573 584.973,881.906 584.5,880.5C 584.5,632.167 584.5,383.833 584.5,135.5 Z"/></g>
<g><path style="opacity:1" fill="#7ed2ba" d="M 587.5,143.5 C 589.02,145.89 590.02,148.557 590.5,151.5C 590.5,395.833 590.5,640.167 590.5,884.5C 588.973,884.573 587.973,883.906 587.5,882.5C 587.5,636.167 587.5,389.833 587.5,143.5 Z"/></g>
<g><path style="opacity:1" fill="#85d4bd" d="M 590.5,151.5 C 592.737,155.534 594.404,159.868 595.5,164.5C 595.833,405.667 595.5,646.667 594.5,887.5C 592.77,886.974 591.436,885.974 590.5,884.5C 590.5,640.167 590.5,395.833 590.5,151.5 Z"/></g>
<g><path style="opacity:1" fill="#8dd7c1" d="M 595.5,164.5 C 597.601,167.797 598.935,171.463 599.5,175.5C 599.5,413.833 599.5,652.167 599.5,890.5C 597.566,889.89 595.899,888.89 594.5,887.5C 595.5,646.667 595.833,405.667 595.5,164.5 Z"/></g>
<g><path style="opacity:1" fill="#93d9c4" d="M 599.5,175.5 C 601.403,178.53 602.737,181.863 603.5,185.5C 603.833,421.334 603.5,657.001 602.5,892.5C 600.973,892.573 599.973,891.906 599.5,890.5C 599.5,652.167 599.5,413.833 599.5,175.5 Z"/></g>
<g><path style="opacity:1" fill="#9adbc8" d="M 603.5,185.5 C 605.402,189.655 607.069,193.989 608.5,198.5C 608.5,431.167 608.5,663.833 608.5,896.5C 606.147,895.66 604.147,894.326 602.5,892.5C 603.5,657.001 603.833,421.334 603.5,185.5 Z"/></g>
<g><path style="opacity:1" fill="#a0ddcb" d="M 608.5,198.5 C 610.601,201.797 611.935,205.463 612.5,209.5C 612.833,439.334 612.5,669.001 611.5,898.5C 609.973,898.573 608.973,897.906 608.5,896.5C 608.5,663.833 608.5,431.167 608.5,198.5 Z"/></g>
<g><path style="opacity:1" fill="#a5dfce" d="M 612.5,209.5 C 614.601,212.797 615.935,216.463 616.5,220.5C 616.833,447.667 616.5,674.667 615.5,901.5C 613.77,900.974 612.436,899.974 611.5,898.5C 612.5,669.001 612.833,439.334 612.5,209.5 Z"/></g>
<g><path style="opacity:1" fill="#abe1d1" d="M 616.5,220.5 C 618.538,224.261 620.204,228.261 621.5,232.5C 621.833,456.667 621.5,680.667 620.5,904.5C 618.566,903.89 616.899,902.89 615.5,901.5C 616.5,674.667 616.833,447.667 616.5,220.5 Z"/></g>
<g><path style="opacity:1" fill="#b2e4d5" d="M 621.5,232.5 C 624.068,238.658 626.402,244.991 628.5,251.5C 628.833,471.001 628.5,690.334 627.5,909.5C 624.865,908.189 622.531,906.522 620.5,904.5C 621.5,680.667 621.833,456.667 621.5,232.5 Z"/></g>
<g><path style="opacity:1" fill="#b9e6d9" d="M 628.5,251.5 C 630.409,255.666 632.075,259.999 633.5,264.5C 633.833,480.667 633.5,696.667 632.5,912.5C 630.566,911.89 628.899,910.89 627.5,909.5C 628.5,690.334 628.833,471.001 628.5,251.5 Z"/></g>
<g><path style="opacity:1" fill="#bee8dc" d="M 633.5,264.5 C 636.013,269.547 638.013,274.88 639.5,280.5C 639.833,492.667 639.5,704.667 638.5,916.5C 636.147,915.66 634.147,914.326 632.5,912.5C 633.5,696.667 633.833,480.667 633.5,264.5 Z"/></g>
<g><path style="opacity:1" fill="#c4eadf" d="M 639.5,280.5 C 642.346,286.21 644.68,292.21 646.5,298.5C 646.833,506.334 646.5,714.001 645.5,921.5C 642.865,920.189 640.531,918.522 638.5,916.5C 639.5,704.667 639.833,492.667 639.5,280.5 Z"/></g>
<g><path style="opacity:1" fill="#cbece2" d="M 646.5,298.5 C 649.396,305.313 652.063,312.313 654.5,319.5C 654.833,522.001 654.5,724.334 653.5,926.5C 650.797,924.819 648.131,923.153 645.5,921.5C 646.5,714.001 646.833,506.334 646.5,298.5 Z"/></g>
<g><path style="opacity:1" fill="#d1eee6" d="M 654.5,319.5 C 657.687,326.56 660.354,333.894 662.5,341.5C 662.5,538.5 662.5,735.5 662.5,932.5C 659.32,930.745 656.32,928.745 653.5,926.5C 654.5,724.334 654.833,522.001 654.5,319.5 Z"/></g>
<g><path style="opacity:1" fill="#d7f1e9" d="M 662.5,341.5 C 666.267,349.126 669.267,357.126 671.5,365.5C 671.5,556.5 671.5,747.5 671.5,938.5C 668.291,936.735 665.291,934.735 662.5,932.5C 662.5,735.5 662.5,538.5 662.5,341.5 Z"/></g>
<g><path style="opacity:1" fill="#def3ed" d="M 671.5,365.5 C 675.385,373.271 678.719,381.271 681.5,389.5C 681.833,574.667 681.5,759.667 680.5,944.5C 677.291,942.735 674.291,940.735 671.5,938.5C 671.5,747.5 671.5,556.5 671.5,365.5 Z"/></g>
<g><path style="opacity:1" fill="#e4f5f0" d="M 681.5,389.5 C 686.203,389.437 690.87,389.771 695.5,390.5C 695.833,578.334 695.5,766.001 694.5,953.5C 689.485,950.996 684.819,947.996 680.5,944.5C 681.5,759.667 681.833,574.667 681.5,389.5 Z"/></g>
<g><path style="opacity:1" fill="#eaf7f4" d="M 695.5,390.5 C 700.595,390.221 705.595,390.555 710.5,391.5C 710.833,582.334 710.5,773.001 709.5,963.5C 703.976,960.908 698.976,957.575 694.5,953.5C 695.5,766.001 695.833,578.334 695.5,390.5 Z"/></g>
<g><path style="opacity:1" fill="#f0faf7" d="M 710.5,391.5 C 717.167,391.833 723.833,392.167 730.5,392.5C 730.5,587.5 730.5,782.5 730.5,977.5C 722.947,973.564 715.947,968.898 709.5,963.5C 710.5,773.001 710.833,582.334 710.5,391.5 Z"/></g>
<g><path style="opacity:1" fill="#f6fcfa" d="M 730.5,392.5 C 740.746,393.147 750.913,394.147 761,395.5C 761.833,596.167 761.667,796.834 760.5,997.5C 750.187,991.166 740.187,984.5 730.5,977.5C 730.5,782.5 730.5,587.5 730.5,392.5 Z"/></g>
</svg>
